<svg xmlns="http://www.w3.org/2000/svg" version="1.1" viewBox="250.63 60.39 739.84 1079.99"> <path d="m974.61 561.47c-3.8281-1.1758-8.9531-3.5742-10.199-6.707-3.9375-9.875-13.199-12.613-20.941-16.344-12.926-6.2383-14.195-6.707-14.051-20.578 0.070313-7.8828 0.32422-15.828-0.42187-23.652-1.6914-17.977-15.828-32.773-33.348-35.652-8.6875-1.4297-13.859 2.125-16.055 11.062-0.92578 3.7422-1.7773 7.4883-2.832 11.902-10.129-1.9688-18.145-3.7188-26.23-5.0391-13.008-2.1367-17.004-7.4883-15.406-20.879 1.2344-10.379 2.0898-20.809 3.4062-31.176 1.668-12.984 4.1641-25.883 5.375-38.914 1.4141-15.289 0.38281-30.492-2.0742-45.781-2.5664-15.984-2.9648-32.305-4.6328-48.445-1.2617-12.156-3.4453-24.227-4.5469-36.395-2.125-23.52-8.9883-45.254-22.68-64.668-14.652-20.762-32.281-38.762-50.797-56.016-7.6445-7.1172-16.32-14.004-21.348-22.801-5.1484-9-11.23-15.926-19.211-22.262-13.969-11.102-29.102-20.449-46.488-23.125-22.777-3.5156-45.996-5.207-69.047-5.5938-12.395-0.21484-25.754 1.6328-35.699 10.969-4.6328 4.3438-7.3789 10.789-12.215 14.797-5.2578 4.3555-11.941 6.9727-17.988 10.355-0.38281 0.21484-0.91016 0.48047-1.0078 0.82812-2.2578 8.2422-10.668 11.543-14.734 17.902-7.5977 11.902-18.84 17.062-31.223 21.336-2.7617 0.94922-5.3516 2.9141-7.5352 4.9336-8.2422 7.6797-15.562 16.223-25.715 21.926-6.6484 3.7305-12.539 9.2148-17.902 14.762-11.473 11.855-22.094 24.527-33.602 36.336-9.9102 10.164-17.629 21.527-22.859 34.691-7.8594 19.738-16.535 39.121-21.434 59.988-3.3477 14.293 3.6133 29.617-4.8945 43.211-0.20312 0.32422-0.070312 0.86328-0.070312 1.3086 0.33594 9.9609-0.085938 20.016 1.1875 29.855 2.5781 19.957 5.6172 39.875 9.457 59.617 1.3203 6.8047-1.332 10.738-6.1562 12.648-5.4844 2.1602-11.797 2.9883-17.746 3.0469-20.027 0.20312-40.094-0.88672-60.098-0.15625-17.531 0.63672-19.164 2.4961-21.852 20.652-1.7773 12-5.9297 24.562 3.2773 35.855 0.85156 1.043-0.91016 3.9727-0.99609 6.0586-0.37109 8.6406-2.207 17.652-0.3125 25.801 1.4766 6.3945 1.0078 10.094-4.0664 13.246-5.9766 3.707-7.5859 9.0586-7.4766 15.684 0.097656 6.1328-0.80469 12.277-0.79297 18.422 0.070312 22.391 0.22656 44.773 0.5625 67.152 0.19141 12.707-1.0664 25.824 1.6445 38.027 4.0078 18.086 0.82812 36.086 2.293 54.07 1.2617 15.395-1.043 31.066-1.1172 46.621-0.023437 5.5547 2.8203 11.148 2.6523 16.668-0.34766 11.062-2.4492 22.066-2.8086 33.121-0.53906 16.57-0.058593 33.18-0.26562 49.777-0.20313 17.039-1.3086 34.094-0.91016 51.121 0.39453 17.473 1.8594 34.957 3.4805 52.367 0.3125 3.4805 2.7344 7.5859 5.4727 9.875 9.8398 8.2305 10.68 19.668 8.3867 30.012-2.7617 12.48-0.68359 24.406-0.78125 36.602-0.046875 6.8398 3.4453 11.484 8.4609 13.727 11.051 4.9219 21.828 10.691 34.871 10.066 9.8398-0.46875 19.789 1.4414 29.629 2.2812 0.66016 3.4219 1.1523 5.0625 1.2969 6.7422 1.3086 16.105 5.3867 21.059 21.648 24.637 18.48 4.0664 37.199 3.5039 55.871 1.4766 5.6641-0.625 10.812-2.3164 14.879-7.3438 2.0391-2.5195 6.625-3.7188 10.223-4.1406 14.723-1.7266 29.508-2.4844 41.426-13.402 2.9883-2.7344 7.9062-4.0078 12.121-4.5977 18.098-2.4961 36.238-4.6445 54.406-6.6016 9.5273-1.0195 19.117-1.7383 28.691-1.8359 3.0234-0.023438 7.8594 1.6094 8.8438 3.8281 4.1758 9.5156 13.512 11.039 21.215 13.656 20.762 7.0664 41.941 4.7031 62.93-0.19141 5.8438-1.3555 11.832-2.5078 17.797-2.7969 17.004-0.81641 34.043-0.875 51.023-1.8477 3.6133-0.21484 7.4414-2.5547 10.535-4.7891 6.7695-4.8711 13.934-6.5273 22.262-6.1445 12.215 0.5625 24.684 0.99609 36.133-4.6211 5.5195-2.7109 10.691-6.1328 14.762-8.5078 7.8008 10.129 15.227 20.27 23.195 29.977 4.4766 5.4375 11.09 5.6055 16.98 3.1562 5.293-2.1836 6.5898-7.4766 7.0781-13.117 1.1992-13.453 2.293-26.988 4.5703-40.285 3.5625-20.867 3.9844-20.629 24.551-23.723 9.7695-1.4648 17.555-6.5156 23.734-14.426 2.7969-3.5742 6.8633-6.1562 10.297-9.2383 5.0625-4.5469 13.152-8.3867 14.543-13.895 4.1523-16.379 6.4062-33.371 8.0156-50.258 1.5469-16.129 1.0312-32.438 2.0156-48.637 1.0078-16.535 4.1406-33.047 3.8633-49.535-0.74219-45.215 3.7188-90.156 6.457-135.13 2.2305-36.648 8.4961-73.043 12.949-109.56 0.32422-2.5938 1.3672-5.6758 0.39453-7.7266-3.3125-6.9492-0.046875-12.875 1.9688-19.02 4.4531-13.57-0.46875-22.367-14.266-26.602zm-487.8-127.34c-3.6836-9.0859-2.4258-17.039 1.0547-23.977 12.492-24.875 20.125-51.336 26.785-78.145 1.8828-7.6094 2.1953-15.707 4.8008-23.016 12.59-35.316 28.523-69 50.723-99.457 1.5469-2.125 3.0859-4.3086 4.2109-6.6719 6.707-14.195 19.789-22.859 30.145-33.742 4.2109-4.4297 12.684-5.1953 19.43-6.6836 4.6211-1.0195 9.6719 0.085937 14.398-0.64844 11.113-1.7266 20.125 2.5781 26.953 10.391 9.3594 10.715 21.109 19.883 25.441 34.332 1.5 5.0273 3.3359 10.176 3.5391 15.336 1.9922 51.637 3.7695 103.29 5.4102 154.93 0.49219 15.336 0.40625 30.684 0.50391 46.031 0.011719 3-0.35938 6-0.57422 9.3477-20.148-0.625-38.762-1.2344-57.371-1.7773-10.355-0.30078-18.707 3.625-24.961 11.977-4.4531 5.9531-9.5391 8.6055-17.867 7.8477-13.871-1.2617-27.973-0.44531-41.965 0.035156-5.9883 0.20312-11.941 1.7148-18.047 2.6523-2.5664-3.168-5.1484-6.6367-8.0508-9.8398-4.6445-5.1367-10.332-7.2852-17.508-7.1875-9.0508 0.12109-18.113-1.1016-27.051-1.7383zm241.73 545.7c-35.363-3.0117-70.645-6.9375-106.05-9.0469-27.07-1.6094-54.289-1.0195-81.434-1.3672-6.9258-0.085937-13.859-0.011718-21.91-0.011718 0.78125-3.9102 0.86328-6.9609 1.9922-9.5508 7.1992-16.414 14.207-32.797 23.914-48.145 11.41-18.035 20.305-37.656 30.371-56.543 2.0273-3.8281 4.1172-7.668 6.6602-11.148 7.4023-10.094 6.6953-17.879-2.9766-25.848-2.293-1.8945-4.9922-3.6836-7.8008-4.4883-5.9531-1.7031-8.2422-6.0469-6.4219-10.992 4.668-12.707-0.92578-21.109-10.176-28.535-0.66016-0.52734-1.0938-1.3555-1.5352-2.1133-0.20312-0.34766-0.19141-0.83984-0.76953-3.625 2.6289-1.7773 5.3867-3.6367 8.1484-5.5078 11.879-8.0742 12.602-16.633 2.1133-26.844-4.668-4.5469-9.457-9.0117-14.375-13.297-4.3203-3.7578-5.9141-8.1719-5.6641-13.945 0.46875-10.848 0.875-21.781 0.21484-32.605-1.2969-21.406 8.6641-39.984 14.352-59.578 3.9102-13.5 19.68-21.203 33.742-18.66 20.711 3.7305 33.035 16.812 43.57 34.32 9.7188 16.152 10.211 33.719 10.922 50.699 0.61328 14.855-3.793 30.516-17.746 39.613-0.625 20.953 17.426 23.305 29.531 31.246-4.1523 13.98-17.605 8.0391-27.852 12.938 4.5469 11.965 8.9141 23.531 13.367 35.074 1.8594 4.8125 3.9727 9.5156 5.8555 14.316 7.5 19.129 14.762 38.195 27.18 55.117 7.4023 10.078 11.762 22.367 17.746 33.527 6.2031 11.555 12.254 23.258 19.285 34.309 3.8867 6.1328 9.6016 11.125 14.617 16.5 6.0859 6.5273 12.312 12.938 18.938 19.859-5.8164 5.6289-11.961 4.8242-17.805 4.332z" fill="#212121" fill-rule="evenodd"></path></svg>
